<svg xmlns="http://www.w3.org/2000/svg" id="image-export" fill="none" viewBox="0 0 24 24"><path fill="currentColor" d="M18.354 15.502a.5.5 0 0 1 .707 0l2.145 2.146.063.076a.5.5 0 0 1-.063.63L19.061 20.5a.5.5 0 0 1-.707-.707l1.291-1.292h-4.492a.5.5 0 0 1 0-1h4.492l-1.291-1.292a.5.5 0 0 1 0-.707M21.5 4a.5.5 0 0 1 .5.5V15a5 5 0 0 0-.178-.22 5 5 0 0 0-2.807-1.678l-3.517-2.938-6.685 5.72a.5.5 0 0 1-.636.011l-2.16-1.723L3 16.736V19h10.1q.108.522.317 1H2.5a.5.5 0 0 1-.5-.5v-15a.5.5 0 0 1 .5-.5zM3 15.424l2.685-2.28a.5.5 0 0 1 .635-.01l2.158 1.721L15.17 9.13a.5.5 0 0 1 .571-.055l.074.051L21 13.459V5H3zM7.005 6.01a2.499 2.499 0 1 1-.002 4.997 2.499 2.499 0 0 1 .002-4.997m0 1a1.5 1.5 0 1 0 0 2.998 1.5 1.5 0 0 0 0-2.998"/></svg>